<?xml version="1.0" encoding="UTF-8" standalone="no"?>
<svg
   xmlns:dc="http://purl.org/dc/elements/1.1/"
   xmlns:cc="http://creativecommons.org/ns#"
   xmlns:rdf="http://www.w3.org/1999/02/22-rdf-syntax-ns#"
   xmlns:svg="http://www.w3.org/2000/svg"
   xmlns="http://www.w3.org/2000/svg"
   xmlns:sodipodi="http://sodipodi.sourceforge.net/DTD/sodipodi-0.dtd"
   xmlns:inkscape="http://www.inkscape.org/namespaces/inkscape"
   id="_x31_"
   enable-background="new 0 0 24 24"
   height="512"
   viewBox="0 0 24 24"
   width="512"
   version="1.1"
   sodipodi:docname="clipboard.svg"
   inkscape:version="0.92.3 (2405546, 2018-03-11)">
  <metadata
     id="metadata21">
    <rdf:RDF>
      <cc:Work
         rdf:about="">
        <dc:format>image/svg+xml</dc:format>
        <dc:type
           rdf:resource="http://purl.org/dc/dcmitype/StillImage" />
      </cc:Work>
    </rdf:RDF>
  </metadata>
  <defs
     id="defs19" />
  <sodipodi:namedview
     pagecolor="#ffffff"
     bordercolor="#666666"
     borderopacity="1"
     objecttolerance="10"
     gridtolerance="10"
     guidetolerance="10"
     inkscape:pageopacity="0"
     inkscape:pageshadow="2"
     inkscape:window-width="1920"
     inkscape:window-height="1017"
     id="namedview17"
     showgrid="false"
     inkscape:zoom="1.3037281"
     inkscape:cx="-85.422133"
     inkscape:cy="247.64453"
     inkscape:window-x="-8"
     inkscape:window-y="-8"
     inkscape:window-maximized="1"
     inkscape:current-layer="_x31_" />
  <path
     style="opacity:0.3;stroke-width:18.44067764"
     d="M 200.67773 34.710938 C 178.41984 34.710938 159.77628 50.571378 155.49805 71.59375 L 117.69531 71.59375 C 112.60568 71.59375 108.47461 75.724825 108.47461 80.814453 L 108.47461 90.033203 L 80.814453 90.033203 C 55.384757 90.033203 34.710938 110.72351 34.710938 136.13477 L 34.710938 431.18555 C 34.710938 456.59681 55.384757 477.28906 80.814453 477.28906 L 320.54297 477.28906 C 345.97266 477.28906 366.64453 456.59681 366.64453 431.18555 L 366.64453 136.13477 C 366.64453 110.72351 345.97266 90.033203 320.54297 90.033203 L 292.88086 90.033203 L 292.88086 80.814453 C 292.88086 75.724825 288.74978 71.59375 283.66016 71.59375 L 245.85742 71.59375 C 241.57919 50.571378 222.93564 34.710938 200.67773 34.710938 z M 200.67773 53.152344 C 215.92817 53.152344 228.33984 65.564013 228.33984 80.814453 C 228.33984 85.904081 232.46897 90.033203 237.55859 90.033203 L 274.44141 90.033203 L 274.44141 117.69531 C 274.44141 122.78494 270.29189 126.91602 265.2207 126.91602 L 136.13477 126.91602 C 131.06358 126.91602 126.91602 122.78494 126.91602 117.69531 L 126.91602 90.033203 L 163.79688 90.033203 C 168.8865 90.033203 173.01758 85.904081 173.01758 80.814453 C 173.01758 65.564013 185.42729 53.152344 200.67773 53.152344 z M 80.814453 108.47461 L 108.47461 108.47461 L 108.47461 117.69531 C 108.47461 132.94575 120.88433 145.35547 136.13477 145.35547 L 265.2207 145.35547 C 280.47116 145.35547 292.88086 132.94575 292.88086 117.69531 L 292.88086 108.47461 L 320.54297 108.47461 C 335.7934 108.47461 348.20312 120.88433 348.20312 136.13477 L 348.20312 431.18555 C 348.20312 446.436 335.7934 458.84766 320.54297 458.84766 L 80.814453 458.84766 C 65.564013 458.84766 53.152344 446.436 53.152344 431.18555 L 53.152344 136.13477 C 53.152344 120.88433 65.564013 108.47461 80.814453 108.47461 z M 99.253906 200.67773 C 94.164279 200.67773 90.033203 204.80881 90.033203 209.89844 C 90.033203 214.98806 94.164279 219.11914 99.253906 219.11914 L 302.10156 219.11914 C 307.19118 219.11914 311.32227 214.98806 311.32227 209.89844 C 311.32227 204.80881 307.19118 200.67773 302.10156 200.67773 L 99.253906 200.67773 z M 99.253906 256 C 94.164279 256 90.033203 260.13108 90.033203 265.2207 C 90.033203 270.31035 94.164279 274.44141 99.253906 274.44141 L 302.10156 274.44141 C 307.19118 274.44141 311.32227 270.31035 311.32227 265.2207 C 311.32227 260.13108 307.19118 256 302.10156 256 L 99.253906 256 z M 99.253906 311.32227 C 94.164279 311.32227 90.033203 315.45333 90.033203 320.54297 C 90.033203 325.63259 94.164279 329.76367 99.253906 329.76367 L 302.10156 329.76367 C 307.19118 329.76367 311.32227 325.63259 311.32227 320.54297 C 311.32227 315.45333 307.19118 311.32227 302.10156 311.32227 L 99.253906 311.32227 z M 99.253906 366.64453 C 94.164279 366.64453 90.033203 370.77561 90.033203 375.86523 C 90.033203 380.95486 94.164279 385.08398 99.253906 385.08398 L 302.10156 385.08398 C 307.19118 385.08398 311.32227 380.95486 311.32227 375.86523 C 311.32227 370.77561 307.19118 366.64453 302.10156 366.64453 L 99.253906 366.64453 z "
     transform="scale(0.046875)"
     id="path2" />
  <path
     d="m 20.644068,19.779661 c -0.163373,0 -0.312915,-0.09249 -0.38639,-0.238576 l -1.11422,-2.228441 C 18.993915,17.013559 18.915254,16.679898 18.915254,16.346237 V 8.5423729 c 0,-0.9534407 0.775373,-1.7288136 1.728814,-1.7288136 0.95344,0 1.728813,0.7753729 1.728813,1.7288136 v 7.8038641 c 0,0.333661 -0.07866,0.667322 -0.228203,0.966407 l -1.11422,2.228441 c -0.07347,0.146084 -0.223017,0.238576 -0.38639,0.238576 z m 0,-12.1016949 c -0.477153,0 -0.864407,0.3881186 -0.864407,0.8644068 v 7.8038641 c 0,0.199678 0.04754,0.401085 0.136576,0.580017 l 0.727831,1.454797 0.72783,-1.454797 c 0.08903,-0.178932 0.136577,-0.380339 0.136577,-0.580017 V 8.5423729 c 0,-0.4762882 -0.387255,-0.8644068 -0.864407,-0.8644068 z m 1.11422,9.4410509 h 0.0086 z"
     id="path6"
     inkscape:connector-curvature="0"
     style="stroke-width:0.86440676;opacity:0.3" />
</svg>
