<?xml version="1.0" encoding="UTF-8" standalone="no"?>
<!-- Generator: Adobe Illustrator 19.0.0, SVG Export Plug-In . SVG Version: 6.00 Build 0)  -->

<svg
   xmlns:dc="http://purl.org/dc/elements/1.1/"
   xmlns:cc="http://creativecommons.org/ns#"
   xmlns:rdf="http://www.w3.org/1999/02/22-rdf-syntax-ns#"
   xmlns:svg="http://www.w3.org/2000/svg"
   xmlns="http://www.w3.org/2000/svg"
   xmlns:sodipodi="http://sodipodi.sourceforge.net/DTD/sodipodi-0.dtd"
   xmlns:inkscape="http://www.inkscape.org/namespaces/inkscape"
   version="1.1"
   id="Capa_1"
   x="0px"
   y="0px"
   viewBox="0 0 512 512"
   style="enable-background:new 0 0 512 512;"
   xml:space="preserve"
   sodipodi:docname="invisible.svg"
   inkscape:version="0.92.3 (2405546, 2018-03-11)"><metadata
   id="metadata49"><rdf:RDF><cc:Work
       rdf:about=""><dc:format>image/svg+xml</dc:format><dc:type
         rdf:resource="http://purl.org/dc/dcmitype/StillImage" /><dc:title /></cc:Work></rdf:RDF></metadata><defs
   id="defs47" /><sodipodi:namedview
   pagecolor="#ffffff"
   bordercolor="#666666"
   borderopacity="1"
   objecttolerance="10"
   gridtolerance="10"
   guidetolerance="10"
   inkscape:pageopacity="0"
   inkscape:pageshadow="2"
   inkscape:window-width="1920"
   inkscape:window-height="1017"
   id="namedview45"
   showgrid="false"
   inkscape:zoom="0.4609375"
   inkscape:cx="-454.50847"
   inkscape:cy="256"
   inkscape:window-x="-8"
   inkscape:window-y="-8"
   inkscape:window-maximized="1"
   inkscape:current-layer="Capa_1" />
<g
   id="g6"
   style="opacity:0.25">
	<g
   id="g4"
   style="">
		<path
   d="M 79.845703 64.876953 L 58.369141 86.355469 L 126.32812 154.31445 C 135.82537 149.54338 145.73967 145.07376 156.01172 141.04297 L 79.845703 64.876953 z M 156.01172 141.04297 L 189.6543 174.68555 C 207.75328 159.89019 230.85788 151 256 151 C 313.891 151 361 198.109 361 256 C 361 281.14212 352.10981 304.24672 337.31445 322.3457 L 376.90625 361.9375 C 453.14909 326.10535 505.0669 269.47535 508.17773 266.00586 C 513.27473 260.30786 513.27473 251.69214 508.17773 245.99414 C 503.60773 240.89614 393.682 121 256 121 C 220.35874 121 186.5867 129.04522 156.01172 141.04297 z M 376.90625 361.9375 C 367.15761 366.51911 357.01862 370.76512 346.52539 374.51172 L 423.47656 451.46094 L 444.95312 429.98438 L 376.90625 361.9375 z M 346.52539 374.51172 L 314.89453 342.87891 C 298.08751 354.30967 277.81047 361 256 361 C 198.109 361 151 313.891 151 256 C 151 234.18992 157.68875 213.91231 169.11914 197.10547 L 126.32812 154.31445 C 54.892108 190.20134 6.8124491 242.65921 3.8222656 245.99414 C -1.2757344 251.69214 -1.2757344 260.30786 3.8222656 266.00586 C 8.3932656 271.10386 118.32 391 256 391 C 288.00003 391 318.49826 384.51877 346.52539 374.51172 z M 169.11914 197.10547 L 190.88086 218.86523 C 195.98143 209.95671 202.84142 202.17917 211.00586 196.03711 L 189.6543 174.68555 C 181.77981 181.1227 174.85203 188.67603 169.11914 197.10547 z M 211.00586 196.03711 L 315.85352 300.88477 C 322.81362 291.56401 327.67668 280.58049 329.72266 268.64258 C 299.51666 278.36758 271 255.522 271 226 C 271 210.91 278.49072 197.6357 289.88672 189.4707 C 279.66072 184.2357 268.255 181 256 181 C 239.132 181 223.54896 186.60101 211.00586 196.03711 z M 315.85352 300.88477 C 309.73771 309.07486 301.99591 315.96993 293.10547 321.08984 L 314.89453 342.87891 C 323.3236 337.14614 330.87754 330.2199 337.31445 322.3457 L 315.85352 300.88477 z M 293.10547 321.08984 L 190.88086 218.86523 C 184.60688 229.82319 181 242.49456 181 256 C 181 297.353 214.647 331 256 331 C 269.51697 331 282.17539 327.38436 293.10547 321.08984 z "
   id="path2"
   style="" />
	</g>
</g>
<g
   id="g12">
	<g
   id="g10">
		
	</g>
</g>
<g
   id="g14">
</g>
<g
   id="g16">
</g>
<g
   id="g18">
</g>
<g
   id="g20">
</g>
<g
   id="g22">
</g>
<g
   id="g24">
</g>
<g
   id="g26">
</g>
<g
   id="g28">
</g>
<g
   id="g30">
</g>
<g
   id="g32">
</g>
<g
   id="g34">
</g>
<g
   id="g36">
</g>
<g
   id="g38">
</g>
<g
   id="g40">
</g>
<g
   id="g42">
</g>
</svg>