<?xml version="1.0" encoding="UTF-8" standalone="no"?>
<svg
   xmlns:dc="http://purl.org/dc/elements/1.1/"
   xmlns:cc="http://creativecommons.org/ns#"
   xmlns:rdf="http://www.w3.org/1999/02/22-rdf-syntax-ns#"
   xmlns:svg="http://www.w3.org/2000/svg"
   xmlns="http://www.w3.org/2000/svg"
   xmlns:sodipodi="http://sodipodi.sourceforge.net/DTD/sodipodi-0.dtd"
   xmlns:inkscape="http://www.inkscape.org/namespaces/inkscape"
   id="bold"
   enable-background="new 0 0 24 24"
   height="512"
   viewBox="0 0 24 24"
   width="512"
   version="1.1"
   sodipodi:docname="no-wifi.svg"
   inkscape:version="0.92.3 (2405546, 2018-03-11)">
  <metadata
     id="metadata35">
    <rdf:RDF>
      <cc:Work
         rdf:about="">
        <dc:format>image/svg+xml</dc:format>
        <dc:type
           rdf:resource="http://purl.org/dc/dcmitype/StillImage" />
      </cc:Work>
    </rdf:RDF>
  </metadata>
  <defs
     id="defs33" />
  <sodipodi:namedview
     pagecolor="#ffffff"
     bordercolor="#666666"
     borderopacity="1"
     objecttolerance="10"
     gridtolerance="10"
     guidetolerance="10"
     inkscape:pageopacity="0"
     inkscape:pageshadow="2"
     inkscape:window-width="1920"
     inkscape:window-height="1017"
     id="namedview31"
     showgrid="false"
     inkscape:zoom="0.4609375"
     inkscape:cx="-46.644068"
     inkscape:cy="256"
     inkscape:window-x="-8"
     inkscape:window-y="-8"
     inkscape:window-maximized="1"
     inkscape:current-layer="bold" />
  <g
     id="g4"
     style="fill:#de2a4f;fill-opacity:1">
    <path
       d="m12 24c-6.617 0-12-5.383-12-12s5.383-12 12-12 12 5.383 12 12-5.383 12-12 12zm0-22c-5.514 0-10 4.486-10 10s4.486 10 10 10 10-4.486 10-10-4.486-10-10-10z"
       id="path2"
       style="fill:#de2a4f;fill-opacity:1" />
  </g>
  <g
     id="g8"
     style="fill:#de2a4f;fill-opacity:1">
    <path
       d="m4.224 20.776c-.256 0-.512-.098-.707-.293-.391-.391-.391-1.023 0-1.414l15.552-15.552c.391-.391 1.023-.391 1.414 0s.391 1.024 0 1.414l-15.552 15.552c-.196.196-.452.293-.707.293z"
       id="path6"
       style="fill:#de2a4f;fill-opacity:1" />
  </g>
  <g
     id="g12"
     style="fill:#319e1e;fill-opacity:1">
    <path
       d="m13.174 13.655-3.25 3.25c.411.729 1.183 1.229 2.076 1.229 1.319 0 2.394-1.077 2.394-2.4 0-.894-.496-1.666-1.22-2.079z"
       id="path10"
       style="fill:#319e1e;fill-opacity:1" />
  </g>
  <g
     id="g16"
     style="fill:#319e1e;fill-opacity:1">
    <path
       d="m7.784 13.359c.105-.105.216-.202.327-.298l3.439-3.439c-1.956.11-3.784.92-5.183 2.326-.39.392-.388 1.025.004 1.415.39.389 1.025.387 1.413-.004z"
       id="path14"
       style="fill:#319e1e;fill-opacity:1" />
  </g>
  <g
     id="g20"
     style="fill:#319e1e;fill-opacity:1">
    <path
       d="m16.086 10.743-1.471 1.471c.584.288 1.126.669 1.601 1.145.195.196.452.294.709.294.255 0 .511-.097.705-.291.392-.39.394-1.023.004-1.415-.47-.472-.993-.869-1.548-1.204z"
       id="path18"
       style="fill:#319e1e;fill-opacity:1" />
  </g>
  <g
     id="g24"
     style="fill:#319e1e;fill-opacity:1">
    <path
       d="m18.775 8.054-1.43 1.43c.534.357 1.037.769 1.5 1.234.195.196.452.294.709.294.255 0 .511-.097.705-.292.392-.39.394-1.022.004-1.414-.463-.465-.965-.876-1.488-1.252z"
       id="path22"
       style="fill:#319e1e;fill-opacity:1" />
  </g>
  <g
     id="g28"
     style="fill:#319e1e;fill-opacity:1">
    <path
       d="m5.154 10.718c1.83-1.839 4.261-2.851 6.846-2.851.412 0 .818.035 1.22.086l1.703-1.703c-.945-.244-1.922-.383-2.923-.383-3.12 0-6.055 1.222-8.264 3.44-.39.392-.388 1.024.004 1.414.391.39 1.026.388 1.414-.003z"
       id="path26"
       style="fill:#319e1e;fill-opacity:1" />
  </g>
</svg>
