<?xml version="1.0" encoding="UTF-8" standalone="no"?>
<!-- Generator: Adobe Illustrator 19.0.0, SVG Export Plug-In . SVG Version: 6.00 Build 0)  -->

<svg
   xmlns:dc="http://purl.org/dc/elements/1.1/"
   xmlns:cc="http://creativecommons.org/ns#"
   xmlns:rdf="http://www.w3.org/1999/02/22-rdf-syntax-ns#"
   xmlns:svg="http://www.w3.org/2000/svg"
   xmlns="http://www.w3.org/2000/svg"
   xmlns:sodipodi="http://sodipodi.sourceforge.net/DTD/sodipodi-0.dtd"
   xmlns:inkscape="http://www.inkscape.org/namespaces/inkscape"
   version="1.1"
   id="Capa_1"
   x="0px"
   y="0px"
   viewBox="0 0 511.988 511.988"
   style="enable-background:new 0 0 511.988 511.988;"
   xml:space="preserve"
   sodipodi:docname="paper-clip.svg"
   inkscape:version="0.92.3 (2405546, 2018-03-11)"><metadata
   id="metadata43"><rdf:RDF><cc:Work
       rdf:about=""><dc:format>image/svg+xml</dc:format><dc:type
         rdf:resource="http://purl.org/dc/dcmitype/StillImage" /></cc:Work></rdf:RDF></metadata><defs
   id="defs41" /><sodipodi:namedview
   pagecolor="#ffffff"
   bordercolor="#666666"
   borderopacity="1"
   objecttolerance="10"
   gridtolerance="10"
   guidetolerance="10"
   inkscape:pageopacity="0"
   inkscape:pageshadow="2"
   inkscape:window-width="1920"
   inkscape:window-height="1017"
   id="namedview39"
   showgrid="false"
   inkscape:zoom="0.4609483"
   inkscape:cx="-454.49783"
   inkscape:cy="255.994"
   inkscape:window-x="-8"
   inkscape:window-y="-8"
   inkscape:window-maximized="1"
   inkscape:current-layer="Capa_1" />
<g
   transform="translate(1 1)"
   id="g6"
   style="fill:#7bb3ff;fill-opacity:1">
	<g
   id="g4"
   style="fill:#7bb3ff;fill-opacity:1">
		<path
   d="M489.305,185.463c-8.354-8.309-21.861-8.272-30.17,0.081L202.687,443.379c-33.271,33.271-87.308,33.271-120.641-0.045    c-33.308-33.325-33.308-87.362,0.004-120.674L346.089,57.234c20.772-20.771,54.543-20.771,75.375,0.045    c20.826,20.826,20.826,54.593-0.005,75.425L202.727,351.434c-0.014,0.014-0.026,0.03-0.04,0.044    c-8.333,8.287-21.8,8.276-30.116-0.04c-8.33-8.33-8.33-21.831,0-30.161l105.58-105.602c8.33-8.332,8.329-21.84-0.003-30.17    c-8.332-8.33-21.84-8.329-30.17,0.003l-105.579,105.6c-24.991,24.991-24.991,65.507,0.002,90.499    c24.992,24.992,65.508,24.992,90.501,0c0.029-0.029,0.052-0.06,0.08-0.089l218.646-218.646c37.494-37.494,37.494-98.276,0-135.77    c-37.499-37.472-98.277-37.472-135.749,0L51.84,292.53C1.906,342.464,1.906,423.509,51.876,473.504    c50.003,49.977,131.049,49.977,181.022,0.004l256.489-257.875C497.695,207.279,497.658,193.772,489.305,185.463z"
   id="path2"
   style="fill:#7bb3ff;fill-opacity:1" />
	</g>
</g>
<g
   id="g8">
</g>
<g
   id="g10">
</g>
<g
   id="g12">
</g>
<g
   id="g14">
</g>
<g
   id="g16">
</g>
<g
   id="g18">
</g>
<g
   id="g20">
</g>
<g
   id="g22">
</g>
<g
   id="g24">
</g>
<g
   id="g26">
</g>
<g
   id="g28">
</g>
<g
   id="g30">
</g>
<g
   id="g32">
</g>
<g
   id="g34">
</g>
<g
   id="g36">
</g>
</svg>