<?xml version="1.0" encoding="UTF-8" standalone="no"?>
<svg
   xmlns:dc="http://purl.org/dc/elements/1.1/"
   xmlns:cc="http://creativecommons.org/ns#"
   xmlns:rdf="http://www.w3.org/1999/02/22-rdf-syntax-ns#"
   xmlns:svg="http://www.w3.org/2000/svg"
   xmlns="http://www.w3.org/2000/svg"
   xmlns:sodipodi="http://sodipodi.sourceforge.net/DTD/sodipodi-0.dtd"
   xmlns:inkscape="http://www.inkscape.org/namespaces/inkscape"
   height="329"
   viewBox="0 0 82.25 82.25"
   width="329"
   version="1.1"
   id="svg4"
   sodipodi:docname="wrench.svg"
   inkscape:version="0.92.3 (2405546, 2018-03-11)">
  <metadata
     id="metadata10">
    <rdf:RDF>
      <cc:Work
         rdf:about="">
        <dc:format>image/svg+xml</dc:format>
        <dc:type
           rdf:resource="http://purl.org/dc/dcmitype/StillImage" />
        <dc:title></dc:title>
      </cc:Work>
    </rdf:RDF>
  </metadata>
  <defs
     id="defs8" />
  <sodipodi:namedview
     pagecolor="#ffffff"
     bordercolor="#666666"
     borderopacity="1"
     objecttolerance="10"
     gridtolerance="10"
     guidetolerance="10"
     inkscape:pageopacity="0"
     inkscape:pageshadow="2"
     inkscape:window-width="1920"
     inkscape:window-height="1017"
     id="namedview6"
     showgrid="false"
     inkscape:zoom="2.6074563"
     inkscape:cx="178.06705"
     inkscape:cy="182.1007"
     inkscape:window-x="-8"
     inkscape:window-y="-8"
     inkscape:window-maximized="1"
     inkscape:current-layer="svg4" />
  <path
     d="m 80.611746,12.678018 a 1.75,1.75 0 0 0 -2.908,-0.716 l -8.163,8.159 -7.36,-7.36 8.163,-8.1629999 a 1.749,1.749 0 0 0 -0.716,-2.907 16.753,16.753 0 0 0 -20.911,21.2699999 l -28.816,28.816 a 15.124,15.124 0 0 0 -18.4160002,19.12 1.75,1.75 0 0 0 2.908,0.716 l 7.1500002,-7.15 6.3,6.3 -7.15,7.15 a 1.75,1.75 0 0 0 0.716,2.908 15.248,15.248 0 0 0 4.543,0.7 15.125,15.125 0 0 0 14.577,-19.116 l 28.817,-28.816 a 16.754,16.754 0 0 0 21.266,-20.911 z m -6.613,14.38 a 13.229,13.229 0 0 1 -14.431,2.882 1.748,1.748 0 0 0 -1.9,0.381 l -30.361,30.356 a 1.751,1.751 0 0 0 -0.413,1.819 11.7,11.7 0 0 1 -2.731,12.112 11.558,11.558 0 0 1 -8.616,3.4 l 6.008,-6.008 a 1.748,1.748 0 0 0 0,-2.474 l -8.77,-8.775 a 1.748,1.748 0 0 0 -2.474,0 l -6.0080002,6.008 a 11.624,11.624 0 0 1 15.5070002,-11.347 1.753,1.753 0 0 0 1.819,-0.413 l 30.356,-30.357 a 1.748,1.748 0 0 0 0.381,-1.9 13.254,13.254 0 0 1 13.171,-18.2829999 l -7.068,7.0689999 a 1.749,1.749 0 0 0 0,2.475 l 9.835,9.834 a 1.748,1.748 0 0 0 2.474,0 l 7.069,-7.068 a 13.215,13.215 0 0 1 -3.848,10.289 z"
     id="path2"
     style="fill:#2222ae;fill-opacity:1"
     inkscape:connector-curvature="0" />
</svg>
